<svg xmlns="http://www.w3.org/2000/svg" aria-hidden="true" style="position:absolute;width:0;height:0;overflow:hidden">
  <defs>
    <symbol id="icon-close" viewBox="0 0 32 32">
      <path fill="#ff8a00" d="m8.533 25.333-1.867-1.867 7.467-7.467-7.467-7.467 1.867-1.867L16 14.132l7.467-7.467 1.867 1.867-7.467 7.467 7.467 7.467-1.867 1.867L16 17.866l-7.467 7.467z" style="fill:var(--color1, #ff8a00)"/>
    </symbol>
    <symbol id="icon-menu" viewBox="0 0 32 32">
      <path d="M4 24v-2h24v2H4zm0-7v-2h24v2H4zm0-7V8h24v2H4z"/>
    </symbol>
    <symbol id="icon-pineapple" viewBox="0 0 32 32">
      <path fill="#9be23b" d="M19.2 10.267c2.667-1.733 6.133-.933 6.133-.933-2.4-3.2-5.2-3.067-7.2-2.4v-.267c1.467-2.133 4.4-2 4.4-2-2.133-1.867-4-1.333-5.2-.667C16.666 2.4 16 1.333 16 1.333c-.533.933-.933 1.867-1.333 2.8-1.2-.8-3.2-1.333-5.333.533 0 0 3.067 0 4.533 2.267-2-.667-4.8-.8-7.2 2.4 0 0 3.467-.8 6.133.933-2.8 1.6-4.8 5.333-4.8 9.733 0 5.867 3.6 10.667 8 10.667s8-4.8 8-10.667c0-4.4-2-8.133-4.8-9.733zM21.067 22.4c-.133.533-.267 1.067-.533 1.6l-1.867-2.667-2 2.667 2.133 2.8c-.4.267-.667.533-1.067.8L16 25.333 14.267 27.6c-.4-.133-.8-.4-1.067-.8l2.133-2.8-2-2.667-2 2.533c-.133-.533-.4-1.067-.533-1.6l1.867-2.267-1.733-2.4c.133-.533.267-1.067.533-1.6l1.867 2.667 2-2.667-2.133-2.8c.4-.267.667-.533 1.067-.8l1.733 2.267 1.733-2.267c.4.133.8.4 1.067.8l-2.133 2.8 2 2.667 2-2.533c.133.533.4 1.067.533 1.6L19.334 20l1.733 2.4zM16 17.333 18 20l-2 2.667L14 20l2-2.667z" style="fill:var(--color2, #9be23b)"/>
    </symbol>
  </defs>
</svg>
